# xmcd
#
# Track frame offsets: 
#        193
#        16625
#        42258
#        56073
#        71435
#        82095
#        97663
#        113440
#        128668
#        147818
#
# Disc length: 2301 seconds
#
# Revision: 0
# Processed by: cddbd v1.5.2PL0 Copyright (c) Steve Scherf et al.
# Submitted via: ExactAudioCopy v0.99pb1
#
DISCID=7308fb0a
DTITLE=Marlow - Blues For Blondes
DYEAR=1991
DGENRE=Blues
TTITLE0=Don't Want You
TTITLE1=Blondie
TTITLE2=Sweet Sensation
TTITLE3=Hey Man
TTITLE4=Rock Me Like A Baby
TTITLE5=Mexico
TTITLE6=Do The Rock'n'Roll
TTITLE7=You Know Who I Am
TTITLE8=Summertime
TTITLE9=Close To Me
EXTD=
EXTT0=
EXTT1=
EXTT2=
EXTT3=
EXTT4=
EXTT5=
EXTT6=
EXTT7=
EXTT8=
EXTT9=
PLAYORDER=
